HIERARCHY
ROOT root
{
	OFFSET 0.000000 0.000000 0.000000
	CHANNELS 6 Xposition Yposition Zposition Zrotation Yrotation Xrotation
	JOINT lhip
	{
		OFFSET 0.058581 -0.082280 -0.017664
		CHANNELS 3 Zrotation Yrotation Xrotation
		JOINT lknee
		{
			OFFSET 0.043451 -0.386469 0.008037
			CHANNELS 3 Zrotation Yrotation Xrotation
			JOINT lankle
			{
				OFFSET -0.014790 -0.426874 -0.037428
				CHANNELS 3 Zrotation Yrotation Xrotation
				JOINT ltoe
				{
					OFFSET 0.041054 -0.060286 0.122042
					CHANNELS 3 Zrotation Yrotation Xrotation
					End Site
					{
						OFFSET 0.000000 0.000000 0.000000
					}
				}
			}
		}
	}
	JOINT rhip
	{
		OFFSET -0.060310 -0.090513 -0.013543
		CHANNELS 3 Zrotation Yrotation Xrotation
		JOINT rknee
		{
			OFFSET -0.043257 -0.383688 -0.004843
			CHANNELS 3 Zrotation Yrotation Xrotation
			JOINT rankle
			{
				OFFSET 0.019056 -0.420046 -0.034562
				CHANNELS 3 Zrotation Yrotation Xrotation
				JOINT rtoe
				{
					OFFSET -0.034840 -0.062106 0.130323
					CHANNELS 3 Zrotation Yrotation Xrotation
					End Site
					{
						OFFSET 0.000000 0.000000 0.000000
					}
				}
			}
		}
	}
	JOINT lowerback
	{
		OFFSET 0.004439 0.124404 -0.038385
		CHANNELS 3 Zrotation Yrotation Xrotation
		JOINT upperback
		{
			OFFSET 0.004488 0.137956 0.026820
			CHANNELS 3 Zrotation Yrotation Xrotation
			JOINT chest
			{
				OFFSET -0.002265 0.056032 0.002855
				CHANNELS 3 Zrotation Yrotation Xrotation
				JOINT lowerneck
				{
					OFFSET -0.013390 0.211636 -0.033468
					CHANNELS 3 Zrotation Yrotation Xrotation
					JOINT upperneck
					{
						OFFSET 0.010113 0.088937 0.050410
						CHANNELS 3 Zrotation Yrotation Xrotation
						End Site
						{
							OFFSET 0.000000 0.000000 0.000000
						}
					}
				}
				JOINT lclavicle
				{
					OFFSET 0.071702 0.114000 -0.018898
					CHANNELS 3 Zrotation Yrotation Xrotation
					JOINT lshoulder
					{
						OFFSET 0.122921 0.045205 -0.019046
						CHANNELS 3 Zrotation Yrotation Xrotation
						JOINT lelbow
						{
							OFFSET 0.255332 -0.015649 -0.022946
							CHANNELS 3 Zrotation Yrotation Xrotation
							JOINT lwrist
							{
								OFFSET 0.265709 0.012698 -0.007375
								CHANNELS 3 Zrotation Yrotation Xrotation
								End Site
								{
									OFFSET 0.000000 0.000000 0.000000
								}
							}
						}
					}
				}
				JOINT rclavicle
				{
					OFFSET -0.082954 0.112472 -0.023707
					CHANNELS 3 Zrotation Yrotation Xrotation
					JOINT rshoulder
					{
						OFFSET -0.113228 0.046853 -0.008472
						CHANNELS 3 Zrotation Yrotation Xrotation
						JOINT relbow
						{
							OFFSET -0.260127 -0.014369 -0.031269
							CHANNELS 3 Zrotation Yrotation Xrotation
							JOINT rwrist
							{
								OFFSET -0.269108 0.006794 -0.006027
								CHANNELS 3 Zrotation Yrotation Xrotation
								End Site
								{
									OFFSET 0.000000 0.000000 0.000000
								}
							}
						}
					}
				}
			}
		}
	}
}
MOTION
Frames: 10
Frame Time: 0.033333
0.569694 0.231140 0.989123 89.069303 3.653739 96.101168 6.405628 3.990266 -1.321479 3.423690 -3.464967 -7.848813 -1.391822 10.456977 -3.902371 0.000000 -0.000000 0.000000 -1.155615 -2.616284 -6.455540 -0.932795 1.456510 0.954274 4.748206 -5.639255 -4.625705 0.000000 -0.000000 0.000000 0.328645 0.115610 -0.174776 3.211124 -3.541500 -2.268257 0.128062 0.104299 -6.857552 -1.111549 -7.500028 6.868516 2.842886 -5.414201 -0.570147 -21.571869 5.908535 -2.696594 -61.525872 -0.192714 22.347072 4.461451 -15.915132 2.300621 -1.442731 -5.643376 0.336238 21.375525 0.302493 -1.922527 55.438543 2.835660 20.816511 0.646898 13.808039 6.120609 4.341612 2.258159 0.043234 
0.569819 0.230892 0.988935 89.055081 3.689534 96.021980 6.457612 4.038943 -1.197805 3.446253 -3.515875 -7.914970 -1.393594 10.490135 -3.874434 0.000000 -0.000000 0.000000 -1.081359 -2.758285 -6.367193 -0.973753 1.576417 0.932539 4.904959 -5.628848 -4.603253 0.000000 -0.000000 0.000000 0.390661 0.121717 0.098931 3.173596 -3.548088 -2.768595 0.150489 0.070154 -6.352817 -1.099968 -7.558703 6.936036 2.923898 -5.521363 -1.124991 -21.488538 5.932282 -2.865269 -61.584459 -0.139480 22.170978 4.383871 -15.947109 2.625720 -1.516811 -5.595414 0.223847 21.296704 0.398963 -2.076898 55.474753 2.901206 20.575315 0.743439 13.788001 6.242383 4.344967 2.356436 0.367807 
0.570157 0.230526 0.988879 89.126757 3.686736 96.080778 6.487983 4.013159 -1.241655 3.428461 -3.570231 -7.954370 -1.473891 10.486273 -3.859782 0.000000 -0.000000 0.000000 -0.998000 -2.696457 -6.260961 -1.072301 1.636687 0.659201 4.859732 -5.744178 -4.581557 0.000000 -0.000000 0.000000 0.347666 0.044777 -0.072423 3.201723 -3.557257 -2.681376 0.134798 -0.004853 -6.133880 -1.089757 -7.578943 6.843168 3.026870 -5.566995 -1.406725 -21.531796 6.124121 -2.999392 -61.440742 -0.227187 22.073801 4.212426 -16.023109 2.902167 -1.661309 -5.660243 0.220717 21.281676 0.480356 -2.118646 55.430141 3.161134 20.557509 0.971772 13.628630 6.396731 4.484299 2.418703 0.386882 
0.571166 0.229685 0.988693 89.384900 3.693247 96.366640 6.567648 3.946568 -1.539742 3.375351 -3.766974 -7.997381 -1.569966 10.515311 -3.938578 0.000000 -0.000000 0.000000 -0.657351 -2.597399 -6.099854 -1.447597 1.838268 -0.092299 4.583297 -6.084195 -4.639301 0.000000 -0.000000 0.000000 0.223476 -0.160863 -0.779964 3.269132 -3.668585 -2.192430 0.115598 -0.051275 -6.107449 -1.083458 -7.762270 6.774760 3.050773 -5.618428 -1.680510 -21.566780 6.337704 -3.065440 -61.221951 -0.315127 22.066900 3.907718 -16.160610 3.216896 -1.619356 -5.588550 0.292118 21.174753 0.906420 -1.976709 55.404899 3.489494 20.692651 1.572015 13.077851 6.340288 4.593784 2.585474 0.075154 
0.571243 0.229657 0.988589 89.374799 3.689260 96.352672 6.559891 3.951122 -1.508867 3.383090 -3.782564 -8.024399 -1.560301 10.517703 -3.951935 0.000000 -0.000000 0.000000 -0.644780 -2.600346 -6.078899 -1.466224 1.848525 -0.111265 4.571591 -6.078027 -4.668065 0.000000 -0.000000 0.000000 0.230835 -0.158923 -0.741127 3.255439 -3.672424 -2.228225 0.121395 -0.052953 -6.104817 -1.103568 -7.763758 6.730057 3.027027 -5.594444 -1.599924 -21.565166 6.274070 -3.020515 -61.236385 -0.321809 22.058984 3.920483 -16.165916 3.198108 -1.544405 -5.569592 0.211919 21.147077 0.959735 -1.944742 55.424788 3.496240 20.695801 1.596224 13.072291 6.326595 4.540484 2.587441 0.034384 
0.571351 0.229556 0.988319 89.368530 3.694280 96.335053 6.564986 3.942066 -1.500434 3.388084 -3.764986 -8.009462 -1.545671 10.485968 -3.954823 0.000000 -0.000000 0.000000 -0.635658 -2.595524 -6.038760 -1.454315 1.859103 -0.168844 4.574702 -6.065697 -4.647178 0.000000 -0.000000 0.000000 0.216575 -0.147741 -0.703211 3.265063 -3.692712 -2.271553 0.158126 -0.067832 -6.102149 -1.105561 -7.614033 6.660589 2.944773 -5.428838 -1.456773 -21.545683 6.165541 -2.938456 -61.328755 -0.336250 22.038679 4.004596 -16.188820 3.105808 -1.447688 -5.456680 0.021831 21.185882 0.987563 -1.883997 55.339417 3.533593 20.697872 1.596792 13.147190 6.359694 4.581350 2.513166 -0.046511 
0.571377 0.229379 0.988113 89.327764 3.732276 96.336606 6.620936 3.953243 -1.490716 3.376484 -3.763970 -8.015920 -1.537744 10.502914 -3.985341 0.000000 -0.000000 0.000000 -0.583936 -2.615997 -6.051845 -1.444350 1.862877 -0.172147 4.579584 -6.036006 -4.646520 0.000000 -0.000000 0.000000 0.248654 -0.109577 -0.684800 3.252710 -3.700427 -2.299988 0.178971 -0.073498 -6.116962 -1.078031 -7.142408 6.634241 2.925648 -4.950865 -1.366581 -21.499244 6.066593 -2.859013 -61.421445 -0.347448 21.981649 4.058662 -16.215195 3.129529 -1.364399 -5.360763 -0.026350 21.238665 1.006142 -1.764077 55.298250 3.603722 20.635299 1.563138 13.142957 6.368295 4.540349 2.492374 -0.029427 
0.571440 0.229325 0.987885 89.287937 3.720267 96.357859 6.603906 3.933051 -1.499576 3.386301 -3.759717 -8.020818 -1.508846 10.534088 -3.985195 0.000000 -0.000000 0.000000 -0.584409 -2.604703 -6.082425 -1.464075 1.851479 -0.187828 4.597958 -6.027892 -4.637185 0.000000 -0.000000 0.000000 0.264108 -0.119835 -0.660343 3.207418 -3.668043 -2.377282 0.211982 -0.067787 -6.133572 -1.006955 -6.295175 6.455069 2.927702 -4.078777 -1.046095 -21.457357 6.007049 -2.792670 -61.484677 -0.353567 21.908351 4.065784 -16.262356 3.250161 -1.310274 -5.444033 -0.139151 21.267246 1.001889 -1.619032 55.282127 3.668121 20.623362 1.554703 13.091448 6.372224 4.487485 2.526107 -0.126918 
0.571616 0.229287 0.987706 89.246276 3.716060 96.346411 6.606272 3.942526 -1.448104 3.376229 -3.779138 -8.060502 -1.490436 10.576788 -3.975275 0.000000 -0.000000 0.000000 -0.573477 -2.597943 -6.052514 -1.487343 1.886733 -0.231168 4.646760 -5.991018 -4.646993 0.000000 -0.000000 0.000000 0.303305 -0.103981 -0.614060 3.150719 -3.644176 -2.483637 0.257448 -0.068135 -6.141964 -0.891762 -5.133061 6.284374 2.903379 -2.804510 -0.802540 -21.416451 5.906510 -2.719477 -61.522152 -0.319440 21.784995 4.013186 -16.282570 3.392101 -1.229071 -5.445510 -0.337093 21.251013 0.955150 -1.466819 55.304385 3.757326 20.603788 1.540270 13.019705 6.384504 4.491653 2.477768 -0.203374 
0.571736 0.229289 0.987613 89.227193 3.726354 96.309390 6.636338 3.943887 -1.364502 3.363391 -3.821374 -8.111153 -1.476533 10.614411 -3.952434 0.000000 -0.000000 0.000000 -0.551508 -2.596485 -6.006918 -1.506436 1.867846 -0.235864 4.683887 -5.972837 -4.683478 0.000000 -0.000000 0.000000 0.360853 -0.119717 -0.531412 3.079133 -3.663702 -2.591444 0.297915 -0.005844 -6.159175 -0.657378 -3.665352 6.102640 3.063423 -1.257216 -0.539768 -21.359658 5.786224 -2.644687 -61.575035 -0.276073 21.644712 3.983325 -16.326583 3.612533 -1.125311 -5.475389 -0.475864 21.279797 0.907619 -1.267552 55.314864 3.844652 20.542986 1.517313 12.914814 6.447679 4.457419 2.484362 -0.212018 
